<?xml version="1.0" encoding="UTF-8" standalone="no"?>
<svg
   version="1.1"
   id="Layer_1"
   x="0px"
   y="0px"
   width="100%"
   viewBox="0 0 393 393"
   enable-background="new 0 0 393 393"
   xml:space="preserve"
   sodipodi:docname="logo.svg"
   inkscape:version="1.4 (86a8ad7, 2024-10-11)"
   xmlns:inkscape="http://www.inkscape.org/namespaces/inkscape"
   xmlns:sodipodi="http://sodipodi.sourceforge.net/DTD/sodipodi-0.dtd"
   xmlns="http://www.w3.org/2000/svg"
   xmlns:svg="http://www.w3.org/2000/svg"><defs
   id="defs8" /><sodipodi:namedview
   id="namedview8"
   pagecolor="#ffffff"
   bordercolor="#000000"
   borderopacity="0.25"
   inkscape:showpageshadow="2"
   inkscape:pageopacity="0.0"
   inkscape:pagecheckerboard="0"
   inkscape:deskcolor="#d1d1d1"
   inkscape:zoom="2"
   inkscape:cx="237.5"
   inkscape:cy="188.25"
   inkscape:window-width="1920"
   inkscape:window-height="1001"
   inkscape:window-x="-9"
   inkscape:window-y="-9"
   inkscape:window-maximized="1"
   inkscape:current-layer="Layer_1" />



<rect
   style="fill:#071e33;fill-opacity:1"
   id="rect9"
   width="392.5"
   height="393"
   x="0.5"
   y="0.5" /><ellipse
   style="fill:#143453;stroke-width:1.25756;fill-opacity:1"
   id="path8"
   cx="198"
   cy="195.75"
   rx="153.5"
   ry="149.25" /><path
   fill="#FDFDFD"
   opacity="1.000000"
   stroke="none"
   d=" M120.296715,63.967339   C150.416260,98.702667 180.171844,133.254700 209.944839,167.791718   C245.049347,208.513336 280.168915,249.221970 315.586365,290.091797   C324.484192,300.489349 333.077576,310.731384 342.273102,321.691101   C322.637207,321.691101 303.912292,321.795471 285.192780,321.524506   C283.385834,321.498352 281.612610,319.144073 279.517303,317.672241   C263.430328,299.012482 247.692581,280.514313 231.861267,262.096558   C183.468231,205.797241 135.039185,149.528870 86.321762,93.100769   C77.893280,83.314262 69.767197,73.675438 61.261177,63.585953   C62.688953,63.418697 63.712734,63.196552 64.737068,63.194012   C81.702682,63.151882 98.668388,63.121311 115.633995,63.145489   C117.069778,63.147533 118.504997,63.557121 120.296715,63.967339  z"
   id="path4" />
<path
   fill="#cd0101"
   opacity="1"
   stroke="none"
   d="m 84.6035,290.5047 c 16.69385,-19.81949 33.27484,-39.32702 49.86552,-58.82628 1.9253,-2.26285 3.90422,-4.48006 6.43253,-7.37623 10.10304,11.48967 19.90271,22.63433 30.02829,34.14962 -16.88568,20.10287 -33.54654,39.93811 -50.33334,60.08175 -1.8167,1.4004 -3.50744,2.49234 -5.88912,3.27124 -16.870779,-0.40368 -33.050596,-0.50253 -49.230558,-0.55252 -0.59639,-0.002 -7.430224,-0.0417 -7.593798,-0.0685 l 0.06147,-0.0906 C 67.084863,310.20742 75.981758,300.9562 84.6035,290.5047 Z"
   id="path5"
   sodipodi:nodetypes="csccccsccc"
   style="fill:#980101;fill-opacity:1" />
<path
   fill="#CD0101"
   opacity="1.000000"
   stroke="none"
   d=" M312.976318,92.599548   C296.629364,112.095802 280.422089,131.286926 264.209900,150.473892   C262.294189,152.741104 260.351624,154.985580 258.001282,157.731583   C255.884018,155.408554 253.990738,153.404602 252.178406,151.329941   C244.951111,143.056549 237.875229,134.645813 230.465530,126.539833   C228.044983,123.891823 228.535095,122.367554 230.615036,119.917725   C246.124664,101.649841 261.491730,83.260948 277.035309,64.607048   C278.363342,63.819618 279.557587,62.918865 280.756165,62.913033   C299.142059,62.823536 317.528503,62.850685 337.462982,62.850685   C328.813812,73.309380 320.964172,82.801270 312.976318,92.599548  z"
   id="path6"
   style="fill:#980101;fill-opacity:1" />


</svg>
